<svg width="24" height="24" viewBox="0 0 24 24" fill="none" xmlns="http://www.w3.org/2000/svg">
<path d="M18.4646 0H5.53541C2.48405 0 0 2.48405 0 5.53541V18.4625C0 21.5159 2.48405 23.9979 5.53541 23.9979H12.8249V16.5166C12.8249 16.5166 12.8249 15.8616 12.8249 14.9147H9.72139V11.3607H12.8249C12.8249 9.99044 12.8249 8.73694 12.8249 8.18215C12.8249 6.65543 13.776 5.10368 15.3527 4.42791C16.9295 3.75215 20.0831 4.22769 20.0831 4.22769V7.33119C20.0247 7.33119 19.7056 7.33119 18.281 7.33119C16.2037 7.33119 16.454 9.18328 16.454 9.18328V10.6599V11.3607H19.9579L19.5325 14.9147H16.454V24H18.4646C21.518 24 24 21.5159 24 18.4646V5.53541C24 2.48405 21.5159 0 18.4646 0Z" fill="#102039"/>
</svg>
