<svg width="116" height="25" viewBox="0 0 116 25" fill="none" xmlns="http://www.w3.org/2000/svg">
<g opacity="0.3">
<path fill-rule="evenodd" clip-rule="evenodd" d="M2.99326 20.1668C1.34015 20.1668 0 18.8196 0 17.1579C0 15.4962 1.34015 14.1489 2.99326 14.1489C3.59698 14.1489 4.15906 14.3286 4.62934 14.6377L12.7838 20.1668H2.99326ZM3.82057 13.3958C2.43573 12.4911 2.04207 10.6286 2.94143 9.23551C3.84079 7.84258 5.69255 7.44654 7.07723 8.3512C7.56447 8.66831 7.94889 9.12193 8.18316 9.65617L12.3504 19.2162L3.82057 13.3958ZM25.4362 20.1697C27.0933 20.1697 28.4366 18.8213 28.4366 17.1577C28.4366 15.4942 27.0933 14.1458 25.4362 14.1458C24.8313 14.1458 24.268 14.3257 23.7966 14.6351L15.6234 20.1698L25.4362 20.1697ZM24.6091 13.3956C25.9969 12.4902 26.3915 10.6257 25.4902 9.23138C24.5888 7.83707 22.7331 7.44073 21.3452 8.3463C20.857 8.66352 20.4716 9.11764 20.2367 9.65265L16.06 19.2217L24.6091 13.3956ZM15.4042 7.73443C15.1905 7.90101 14.6047 7.99157 14.7317 9.04124L15.997 17.9466L20.2167 8.23923C20.8912 6.71903 20.2098 4.93802 18.6952 4.26128C17.1803 3.5844 15.4052 4.26801 14.7308 5.78821C14.5121 6.27913 14.429 6.82029 14.4901 7.35476L15.2853 7.35339C15.736 7.37587 15.9733 7.49641 15.4042 7.73443ZM8.21067 8.24167C7.53763 6.72285 8.21751 4.94337 9.72911 4.26725C11.2409 3.59113 13.0121 4.27413 13.6851 5.79296C13.9225 6.32631 13.9996 6.91797 13.9067 7.49488L12.4216 17.9405L8.21067 8.24167Z" fill="white"/>
</g>
<path opacity="0.3" d="M33.7329 20V5.20361H38.1729L41.7617 14.2476H41.9565L45.5352 5.20361H49.9751V20H46.499V10.6587H46.3145L43.0229 18.8618H40.6953L37.3936 10.6587H37.209V20H33.7329ZM56.4043 15.7856C56.4521 16.3257 56.7222 16.7529 57.2144 17.0674C57.7134 17.3887 58.3525 17.5493 59.1318 17.5493C59.8359 17.5493 60.4067 17.3955 60.8442 17.0879C61.2817 16.7803 61.5005 16.3838 61.5005 15.8984C61.5005 15.4883 61.3228 15.1602 60.9673 14.9141C60.6118 14.6748 60.0103 14.4697 59.1626 14.2988L57.2144 13.9092C54.48 13.3896 53.1128 11.9507 53.1128 9.59229C53.1128 8.14307 53.6494 6.98438 54.7227 6.11621C55.7891 5.24121 57.2144 4.80371 58.9985 4.80371C60.728 4.80371 62.1431 5.23096 63.2437 6.08545C64.3306 6.93994 64.8911 8.05078 64.9253 9.41797H61.4492C61.4082 8.89844 61.1621 8.47119 60.7109 8.13623C60.2666 7.80811 59.7129 7.64404 59.0498 7.64404C58.3867 7.64404 57.8569 7.7876 57.4604 8.07471C57.0571 8.36865 56.8555 8.76172 56.8555 9.25391C56.8555 10.0195 57.5938 10.5493 59.0703 10.8433L60.9775 11.2124C62.4404 11.4927 63.5103 11.9746 64.187 12.6582C64.8706 13.3418 65.2124 14.2715 65.2124 15.4473C65.2124 16.9922 64.6587 18.2021 63.5513 19.0771C62.4438 19.959 60.9194 20.3999 58.978 20.3999C57.105 20.3999 55.6182 19.9863 54.5176 19.1592C53.4102 18.332 52.8428 17.2075 52.8154 15.7856H56.4043ZM68.063 20V5.20361H71.0674L77.23 13.5298H77.4248V5.20361H80.9932V20H78.0093L71.8262 11.5918H71.6313V20H68.063ZM84.4897 20V5.20361H91.3906C92.8604 5.20361 94.0122 5.53174 94.8462 6.18799C95.6733 6.84424 96.0869 7.74658 96.0869 8.89502C96.0869 9.68799 95.8237 10.3853 95.2974 10.9868C94.771 11.5815 94.1147 11.9336 93.3286 12.043V12.2378C94.2993 12.2925 95.1128 12.6514 95.769 13.3145C96.4321 13.9844 96.7637 14.791 96.7637 15.7344C96.7637 17.0332 96.2988 18.0688 95.3691 18.8413C94.4326 19.6138 93.1748 20 91.5957 20H84.4897ZM88.2529 11.2329H90.2422C90.9258 11.2329 91.459 11.0825 91.8418 10.7817C92.2246 10.4878 92.416 10.0776 92.416 9.55127C92.416 9.0249 92.2383 8.61133 91.8828 8.31055C91.5205 8.00977 91.0215 7.85938 90.3857 7.85938H88.2529V11.2329ZM90.5293 17.3442C91.3086 17.3442 91.9067 17.1768 92.3237 16.8418C92.7339 16.5137 92.939 16.0352 92.939 15.4062C92.939 14.7979 92.7305 14.333 92.3135 14.0117C91.8896 13.6836 91.2881 13.5195 90.5088 13.5195H88.2529V17.3442H90.5293ZM106.064 4.80371C108.292 4.80371 110.063 5.50098 111.375 6.89551C112.688 8.29688 113.344 10.1973 113.344 12.5967C113.344 15.0029 112.688 16.9067 111.375 18.3081C110.063 19.7026 108.292 20.3999 106.064 20.3999C103.822 20.3999 102.048 19.7026 100.742 18.3081C99.4229 16.9067 98.7632 15.0029 98.7632 12.5967C98.7632 10.1973 99.4263 8.29688 100.752 6.89551C102.065 5.50098 103.835 4.80371 106.064 4.80371ZM106.064 7.9209C105.018 7.9209 104.181 8.34473 103.552 9.19238C102.916 10.04 102.598 11.1748 102.598 12.5967C102.598 14.0254 102.913 15.1636 103.542 16.0112C104.17 16.8589 105.011 17.2827 106.064 17.2827C107.11 17.2827 107.947 16.8589 108.576 16.0112C109.205 15.1636 109.52 14.0254 109.52 12.5967C109.52 11.1748 109.202 10.04 108.566 9.19238C107.937 8.34473 107.103 7.9209 106.064 7.9209Z" fill="white"/>
</svg>
