<svg width="24" height="24" viewBox="0 0 24 24" fill="none" xmlns="http://www.w3.org/2000/svg">
<g clip-path="url(#clip0_46_14)">
<path d="M11.984 23.9698C10.2308 23.9698 8.47571 24.0151 6.72438 23.9595C3.58439 23.8595 0.833371 21.5134 0.194474 18.4319C0.0770293 17.8673 0.0112605 17.281 0.00938139 16.7041C-0.00377238 13.5784 -0.000953714 10.4527 0.0168978 7.32602C0.037568 3.68657 2.36391 0.846462 5.89757 0.139498C6.36923 0.0452366 6.86062 0.0103597 7.34261 0.00847449C10.4431 -0.00283693 13.5427 -0.000951696 16.6433 0.0037614C20.2878 0.00847449 23.1346 2.33863 23.844 5.91115C23.938 6.38529 23.9793 6.87639 23.9812 7.3609C23.9972 10.4555 24.0028 13.5501 23.999 16.6447C23.9943 20.3813 21.6483 23.2261 17.9906 23.9123C17.503 24.0038 16.9928 23.9934 16.4929 23.9962C14.9896 24.0066 13.4864 24 11.984 24C11.984 23.9887 11.984 23.9793 11.984 23.9698ZM21.6116 12.3615C21.6361 12.3615 21.6605 12.3615 21.6849 12.3615C21.6849 10.776 21.6934 9.18958 21.6793 7.60409C21.6755 7.13561 21.6577 6.65676 21.5581 6.20242C21.0347 3.81948 19.2308 2.36125 16.6414 2.33674C13.3088 2.30564 9.97524 2.33203 6.64358 2.39141C4.53334 2.42912 2.48417 4.50665 2.38364 6.63225C2.33384 7.68139 2.32538 8.73335 2.32914 9.78437C2.33948 12.3276 2.3282 14.8717 2.40337 17.4139C2.46632 19.5471 4.46945 21.5596 6.58814 21.6736C7.89882 21.7443 9.2142 21.749 10.5277 21.7462C12.8118 21.7405 15.0968 21.7594 17.378 21.668C19.5662 21.5803 21.5252 19.5556 21.5994 17.3527C21.6567 15.6908 21.6116 14.0252 21.6116 12.3615Z" fill="#102039"/>
<path d="M11.9934 18.2274C8.5894 18.2255 5.81865 15.4391 5.82429 12.0231C5.82993 8.62683 8.62886 5.84139 12.03 5.84611C15.4087 5.85082 18.1832 8.66736 18.1757 12.0843C18.1682 15.4617 15.3824 18.2293 11.9934 18.2274ZM15.8559 12.0268C15.8587 9.92764 14.0961 8.15175 12.0066 8.14704C9.91793 8.14232 8.15251 9.91067 8.14499 12.0146C8.13747 14.1138 9.89726 15.8869 11.9943 15.8925C14.0849 15.8991 15.8531 14.1289 15.8559 12.0268Z" fill="#102039"/>
<path d="M16.8208 5.848C16.8171 5.02038 17.41 4.42276 18.2349 4.42276C19.0429 4.42276 19.6762 5.05337 19.6668 5.84894C19.6574 6.60398 19.011 7.26098 18.2574 7.27795C17.4832 7.2968 16.8246 6.64074 16.8208 5.848Z" fill="#102039"/>
</g>
<defs>
<clipPath id="clip0_46_14">
<rect width="24" height="24" fill="white"/>
</clipPath>
</defs>
</svg>
