<svg width="109" height="25" viewBox="0 0 109 25" fill="none" xmlns="http://www.w3.org/2000/svg">
<g opacity="0.3">
<path fill-rule="evenodd" clip-rule="evenodd" d="M2.99326 20.1668C1.34015 20.1668 0 18.8196 0 17.1579C0 15.4962 1.34015 14.1489 2.99326 14.1489C3.59698 14.1489 4.15906 14.3286 4.62934 14.6377L12.7838 20.1668H2.99326ZM3.82057 13.3958C2.43573 12.4911 2.04207 10.6286 2.94143 9.23551C3.84079 7.84258 5.69255 7.44654 7.07723 8.3512C7.56447 8.66831 7.94889 9.12193 8.18316 9.65617L12.3504 19.2162L3.82057 13.3958ZM25.4362 20.1697C27.0933 20.1697 28.4366 18.8213 28.4366 17.1577C28.4366 15.4942 27.0933 14.1458 25.4362 14.1458C24.8313 14.1458 24.268 14.3257 23.7966 14.6351L15.6234 20.1698L25.4362 20.1697ZM24.6091 13.3956C25.9969 12.4902 26.3915 10.6257 25.4902 9.23138C24.5888 7.83707 22.7331 7.44073 21.3452 8.3463C20.857 8.66352 20.4716 9.11764 20.2367 9.65265L16.06 19.2217L24.6091 13.3956ZM15.4042 7.73443C15.1905 7.90101 14.6047 7.99157 14.7317 9.04124L15.997 17.9466L20.2167 8.23923C20.8912 6.71903 20.2098 4.93802 18.6952 4.26128C17.1803 3.5844 15.4052 4.26801 14.7308 5.78821C14.5121 6.27913 14.429 6.82029 14.4901 7.35476L15.2853 7.35339C15.736 7.37587 15.9733 7.49641 15.4042 7.73443ZM8.21067 8.24167C7.53763 6.72285 8.21751 4.94337 9.72911 4.26725C11.2409 3.59113 13.0121 4.27413 13.6851 5.79296C13.9225 6.32631 13.9996 6.91797 13.9067 7.49488L12.4216 17.9405L8.21067 8.24167Z" fill="white"/>
</g>
<path opacity="0.3" d="M33.7329 20V5.20361H36.7373L42.8999 13.5298H43.0947V5.20361H46.6631V20H43.6792L37.4961 11.5918H37.3013V20H33.7329ZM60.3008 20H50.1597V5.20361H60.3008V8.22852H53.9229V11.1816H59.9214V13.9502H53.9229V16.9751H60.3008V20ZM70.0625 20H66.5146L62.6489 5.20361H66.5557L68.5244 15.0166H68.709L71.0776 5.20361H74.0923L76.543 15.0166H76.7275L78.6655 5.20361H82.5415L78.6758 20H75.1484L72.6772 10.9355H72.4927L70.0625 20ZM87.9453 15.7856C87.9932 16.3257 88.2632 16.7529 88.7554 17.0674C89.2544 17.3887 89.8936 17.5493 90.6729 17.5493C91.377 17.5493 91.9478 17.3955 92.3853 17.0879C92.8228 16.7803 93.0415 16.3838 93.0415 15.8984C93.0415 15.4883 92.8638 15.1602 92.5083 14.9141C92.1528 14.6748 91.5513 14.4697 90.7036 14.2988L88.7554 13.9092C86.021 13.3896 84.6538 11.9507 84.6538 9.59229C84.6538 8.14307 85.1904 6.98438 86.2637 6.11621C87.3301 5.24121 88.7554 4.80371 90.5396 4.80371C92.269 4.80371 93.6841 5.23096 94.7847 6.08545C95.8716 6.93994 96.4321 8.05078 96.4663 9.41797H92.9902C92.9492 8.89844 92.7031 8.47119 92.252 8.13623C91.8076 7.80811 91.2539 7.64404 90.5908 7.64404C89.9277 7.64404 89.3979 7.7876 89.0015 8.07471C88.5981 8.36865 88.3965 8.76172 88.3965 9.25391C88.3965 10.0195 89.1348 10.5493 90.6113 10.8433L92.5186 11.2124C93.9814 11.4927 95.0513 11.9746 95.728 12.6582C96.4116 13.3418 96.7534 14.2715 96.7534 15.4473C96.7534 16.9922 96.1997 18.2021 95.0923 19.0771C93.9849 19.959 92.4604 20.3999 90.519 20.3999C88.646 20.3999 87.1592 19.9863 86.0586 19.1592C84.9512 18.332 84.3838 17.2075 84.3564 15.7856H87.9453Z" fill="white"/>
</svg>
