<svg width="43" height="25" viewBox="0 0 43 25" fill="none" xmlns="http://www.w3.org/2000/svg">
<path fill-rule="evenodd" clip-rule="evenodd" d="M4.52621 24.4464C2.02648 24.4464 0 22.4092 0 19.8965C0 17.3838 2.02648 15.3464 4.52621 15.3464C5.43913 15.3464 6.28907 15.6182 7.00019 16.0857L19.3308 24.4464H4.52621ZM5.77722 14.2077C3.68316 12.8397 3.08788 10.0233 4.44783 7.9168C5.80779 5.8105 8.60791 5.21164 10.7017 6.5796C11.4385 7.05912 12.0198 7.74505 12.374 8.5529L18.6755 23.009L5.77722 14.2077ZM38.463 24.4508C40.9687 24.4508 43 22.4118 43 19.8963C43 17.3808 40.9687 15.3418 38.463 15.3418C37.5482 15.3418 36.6965 15.6138 35.9837 16.0818L23.6246 24.451L38.463 24.4508ZM37.2122 14.2075C39.3109 12.8384 39.9075 10.0189 38.5446 7.91055C37.1816 5.80217 34.3755 5.20285 32.2769 6.5722C31.5385 7.05187 30.9558 7.73857 30.6007 8.54758L24.285 23.0173L37.2122 14.2075ZM23.2932 5.64696C22.97 5.89886 22.0842 6.03579 22.2764 7.62303L24.1896 21.0891L30.5703 6.41028C31.5904 4.11153 30.56 1.41841 28.2697 0.395096C25.9789 -0.628446 23.2948 0.405274 22.275 2.70402C21.9443 3.44635 21.8186 4.26466 21.9109 5.07285L23.1135 5.07077C23.7949 5.10477 24.1537 5.28705 23.2932 5.64696ZM12.4156 6.41398C11.3979 4.11732 12.426 1.4265 14.7117 0.404117C16.9977 -0.618268 19.676 0.414526 20.6937 2.71119C21.0528 3.5177 21.1692 4.41236 21.0288 5.28473L18.7831 21.0799L12.4156 6.41398Z" fill="white"/>
</svg>
