<svg width="115" height="25" viewBox="0 0 115 25" fill="none" xmlns="http://www.w3.org/2000/svg">
<path opacity="0.3" d="M36.1885 20V8.22852H31.9229V5.20361H44.2173V8.22852H39.9414V20H36.1885ZM53.0151 4.80371C55.2437 4.80371 57.0142 5.50098 58.3267 6.89551C59.6392 8.29688 60.2954 10.1973 60.2954 12.5967C60.2954 15.0029 59.6392 16.9067 58.3267 18.3081C57.0142 19.7026 55.2437 20.3999 53.0151 20.3999C50.7729 20.3999 48.999 19.7026 47.6934 18.3081C46.374 16.9067 45.7144 15.0029 45.7144 12.5967C45.7144 10.1973 46.3774 8.29688 47.7036 6.89551C49.0161 5.50098 50.7866 4.80371 53.0151 4.80371ZM53.0151 7.9209C51.9692 7.9209 51.1318 8.34473 50.5029 9.19238C49.8672 10.04 49.5493 11.1748 49.5493 12.5967C49.5493 14.0254 49.8638 15.1636 50.4927 16.0112C51.1216 16.8589 51.9624 17.2827 53.0151 17.2827C54.061 17.2827 54.8984 16.8589 55.5273 16.0112C56.1562 15.1636 56.4707 14.0254 56.4707 12.5967C56.4707 11.1748 56.1528 10.04 55.5171 9.19238C54.8882 8.34473 54.0542 7.9209 53.0151 7.9209ZM69.2983 5.19336C71.4995 5.19336 73.2051 5.82568 74.415 7.09033C75.6182 8.35498 76.2197 10.1426 76.2197 12.4531C76.2197 14.8799 75.6216 16.7461 74.4253 18.0518C73.2358 19.3506 71.5269 20 69.2983 20H63.0845V5.19336H69.2983ZM66.8477 16.9751H68.6216C69.8452 16.9751 70.7783 16.5991 71.4209 15.8472C72.0635 15.0952 72.3848 13.9878 72.3848 12.5249C72.3848 11.1509 72.0532 10.0879 71.3901 9.33594C70.7339 8.59082 69.811 8.21826 68.6216 8.21826H66.8477V16.9751ZM86.9043 16.7495H82.0747L81.1211 20H77.3887L82.3516 5.20361H86.9556L91.9287 20H87.8271L86.9043 16.7495ZM82.7925 14.0425H86.1968L84.6074 8.53613H84.4126L82.7925 14.0425ZM96.748 20V14.9141L91.6416 5.20361H95.6509L98.5322 11.2432H98.7271L101.588 5.20361H105.597L100.501 14.9141V20H96.748Z" fill="white"/>
<g opacity="0.3">
<path d="M14.5 16C12.0147 16 10 18.0147 10 20.5H19C19 18.0147 16.9853 16 14.5 16Z" fill="white"/>
<path d="M22 20.5C22 16.3579 18.6421 13 14.5 13C10.3579 13 7 16.3579 7 20.5" stroke="white" stroke-width="3.5"/>
<path d="M27 20.5C27 13.5964 21.4036 8 14.5 8C7.59644 8 2 13.5964 2 20.5" stroke="white" stroke-width="3.5"/>
</g>
</svg>
