<svg width="159" height="41" viewBox="0 0 159 41" fill="none" xmlns="http://www.w3.org/2000/svg">
<path fill-rule="evenodd" clip-rule="evenodd" d="M4.52621 32.9954C2.02648 32.9954 0 30.9582 0 28.4455C0 25.9328 2.02648 23.8954 4.52621 23.8954C5.43913 23.8954 6.28907 24.1672 7.00019 24.6347L19.3308 32.9954H4.52621ZM5.77722 22.7567C3.68316 21.3888 3.08788 18.5723 4.44783 16.4658C5.80779 14.3595 8.60791 13.7607 10.7017 15.1286C11.4385 15.6081 12.0198 16.2941 12.374 17.1019L18.6755 31.558L5.77722 22.7567ZM38.463 32.9998C40.9687 32.9998 43 30.9608 43 28.4453C43 25.9298 40.9687 23.8908 38.463 23.8908C37.5482 23.8908 36.6965 24.1628 35.9837 24.6308L23.6246 33L38.463 32.9998ZM37.2122 22.7565C39.3109 21.3874 39.9075 18.5679 38.5446 16.4596C37.1816 14.3512 34.3755 13.7519 32.2769 15.1212C31.5385 15.6009 30.9558 16.2876 30.6007 17.0966L24.285 31.5663L37.2122 22.7565ZM23.2932 14.196C22.97 14.4479 22.0842 14.5848 22.2764 16.172L24.1896 29.6382L30.5703 14.9593C31.5904 12.6605 30.56 9.96742 28.2697 8.94411C25.9789 7.92057 23.2948 8.95428 22.275 11.253C21.9443 11.9954 21.8186 12.8137 21.9109 13.6219L23.1135 13.6198C23.7949 13.6538 24.1537 13.8361 23.2932 14.196ZM12.4156 14.963C11.3979 12.6663 12.426 9.97551 14.7117 8.95313C16.9977 7.93074 19.676 8.96354 20.6937 11.2602C21.0528 12.0667 21.1692 12.9614 21.0288 13.8337L18.7831 29.6289L12.4156 14.963Z" fill="white"/>
<path d="M54.8057 33V9.04395H59.6699L69.6475 22.5244H69.9629V9.04395H75.7402V33H70.9092L60.8984 19.3867H60.583V33H54.8057ZM97.8203 33H81.4014V9.04395H97.8203V13.9414H87.4941V18.7227H97.2061V23.2051H87.4941V28.1025H97.8203V33ZM113.625 33H107.881L101.622 9.04395H107.947L111.135 24.9316H111.434L115.269 9.04395H120.149L124.117 24.9316H124.416L127.554 9.04395H133.829L127.57 33H121.859L117.858 18.3242H117.56L113.625 33ZM142.578 26.1768C142.656 27.0511 143.093 27.7428 143.89 28.252C144.698 28.7721 145.732 29.0322 146.994 29.0322C148.134 29.0322 149.058 28.7832 149.767 28.2852C150.475 27.7871 150.829 27.1452 150.829 26.3594C150.829 25.6953 150.541 25.1641 149.966 24.7656C149.39 24.3783 148.416 24.0462 147.044 23.7695L143.89 23.1387C139.463 22.2975 137.249 19.9678 137.249 16.1494C137.249 13.8031 138.118 11.9271 139.855 10.5215C141.582 9.10482 143.89 8.39648 146.778 8.39648C149.578 8.39648 151.869 9.08822 153.651 10.4717C155.411 11.8551 156.319 13.6536 156.374 15.8672H150.746C150.68 15.026 150.281 14.3343 149.551 13.792C148.831 13.2607 147.935 12.9951 146.861 12.9951C145.788 12.9951 144.93 13.2275 144.288 13.6924C143.635 14.1683 143.309 14.8047 143.309 15.6016C143.309 16.8411 144.504 17.6989 146.895 18.1748L149.982 18.7725C152.351 19.2262 154.083 20.0065 155.179 21.1133C156.285 22.2201 156.839 23.7253 156.839 25.6289C156.839 28.1302 155.942 30.0892 154.149 31.5059C152.356 32.9336 149.888 33.6475 146.745 33.6475C143.713 33.6475 141.305 32.9779 139.523 31.6387C137.73 30.2995 136.812 28.4788 136.768 26.1768H142.578Z" fill="white"/>
</svg>
