<svg width="26" height="20" viewBox="0 0 26 20" fill="none" xmlns="http://www.w3.org/2000/svg">
<g clip-path="url(#clip0_46_19)">
<path d="M25.9072 5.25009C25.4212 2.91482 24.0087 1.47298 21.7229 0.883473C21.3897 0.797579 21.0404 0.765278 20.6919 0.765278C15.5642 0.766012 10.4358 0.757202 5.30815 0.769682C2.75857 0.775556 0.504216 2.72174 0.0979202 5.22513C0.0884205 5.28386 0.0884205 5.34479 0.0350759 5.38517C0.0328836 5.38664 0.0233839 5.3793 0.0175379 5.37489C0.011692 5.36975 0.00584598 5.36388 0 5.35727C0 5.40793 0 5.45932 0 5.50997C0 5.52686 0 5.54374 0 5.56063C0 8.51991 0 11.4785 0 14.4377C0 14.4546 0 14.4715 0 14.4884C0 14.5391 0 14.5904 0 14.6411C0.114727 14.6029 0.0833052 14.7028 0.092805 14.7483C0.578752 17.0836 1.99129 18.5254 4.27707 19.1149C4.61029 19.2008 4.95958 19.2331 5.30815 19.2331C10.4358 19.2324 15.5642 19.2412 20.6919 19.2294C23.2414 19.2236 25.4958 17.2774 25.9021 14.774C25.9116 14.7152 25.9116 14.6543 25.9649 14.6139C25.9671 14.6125 25.9766 14.6198 25.9825 14.6242C25.989 14.6294 25.9949 14.636 26.0007 14.6418C26.0007 14.5912 26.0007 14.5398 26.0007 14.4891C26.0007 14.4723 26.0007 14.4554 26.0007 14.4385C26.0007 11.4968 26.0007 8.55442 26.0007 5.61275C26.0007 5.59586 26.0007 5.57898 26.0007 5.56136C26.0007 5.49309 26.0007 5.42555 26.0007 5.35727C25.8853 5.39618 25.9167 5.2956 25.9072 5.25009ZM16.7948 10.4521C14.5419 11.5306 12.2897 12.609 10.0368 13.6875C9.96886 13.7198 9.90017 13.755 9.82783 13.7763C9.6086 13.8424 9.46318 13.7477 9.43834 13.5215C9.42811 13.429 9.43103 13.3351 9.43103 13.2418C9.4303 12.1627 9.43103 11.0835 9.43103 10.0043C9.43103 8.89138 9.42957 7.77844 9.43176 6.66476C9.43249 6.21988 9.60568 6.11122 9.99663 6.31017C12.2612 7.46203 14.5251 8.61461 16.7889 9.7672C16.9402 9.84429 17.1119 9.91476 17.1068 10.1218C17.1024 10.3156 16.9409 10.3817 16.7948 10.4521Z" fill="#102039"/>
</g>
<defs>
<clipPath id="clip0_46_19">
<rect width="26" height="18.4737" fill="white" transform="translate(0 0.763153)"/>
</clipPath>
</defs>
</svg>
